<?xml version="1.0" encoding="UTF-8" standalone="no"?>
<!DOCTYPE svg PUBLIC "-//W3C//DTD SVG 1.1//EN"
 "http://www.w3.org/Graphics/SVG/1.1/DTD/svg11.dtd">
<!-- Generated by graphviz version 2.47.0 (20210316.0004)
 -->
<!-- Title: trace Pages: 1 -->
<svg width="422pt" height="520pt"
 viewBox="0.00 0.00 421.74 520.00" xmlns="http://www.w3.org/2000/svg" xmlns:xlink="http://www.w3.org/1999/xlink">
<g id="graph0" class="graph" transform="scale(1 1) rotate(0) translate(4 516)">
<title>trace</title>
<polygon fill="white" stroke="transparent" points="-4,4 -4,-516 417.74,-516 417.74,4 -4,4"/>
<g id="clust1" class="cluster">
<title>cluster_AS38193</title>
<polygon fill="none" stroke="#608686" points="8,-170 8,-468 282,-468 282,-170 8,-170"/>
<text text-anchor="middle" x="145" y="-456" font-family="Times New Roman,serif" font-size="10.00">AS38193</text>
<text text-anchor="middle" x="145" y="-445" font-family="Times New Roman,serif" font-size="10.00">[ETISALAT&#45;ROUTE]</text>
</g>
<g id="clust2" class="cluster">
<title>cluster_AS15169</title>
<polygon fill="none" stroke="#60baba" points="8,-8 8,-162 156,-162 156,-8 8,-8"/>
<text text-anchor="middle" x="82" y="-150" font-family="Times New Roman,serif" font-size="10.00">AS15169</text>
<text text-anchor="middle" x="82" y="-139" font-family="Times New Roman,serif" font-size="10.00">[Google]</text>
</g>
<!-- 58.65.175.252 -->
<g id="node1" class="node">
<title>58.65.175.252</title>
<ellipse fill="#608686" stroke="black" cx="212" cy="-412" rx="61.99" ry="18"/>
<text text-anchor="middle" x="212" y="-408.3" font-family="Times New Roman,serif" font-size="14.00">58.65.175.252</text>
</g>
<!-- 172.16.11.142 -->
<g id="node9" class="node">
<title>172.16.11.142</title>
<ellipse fill="none" stroke="black" cx="352" cy="-340" rx="61.99" ry="18"/>
<text text-anchor="middle" x="352" y="-336.3" font-family="Times New Roman,serif" font-size="14.00">172.16.11.142</text>
</g>
<!-- 58.65.175.252&#45;&gt;172.16.11.142 -->
<g id="edge2" class="edge">
<title>58.65.175.252&#45;&gt;172.16.11.142</title>
<path fill="none" stroke="#a07070" d="M241.69,-396.15C262.57,-385.71 290.71,-371.64 313.34,-360.33"/>
<polygon fill="#a07070" stroke="#a07070" points="314.97,-363.43 322.35,-355.82 311.84,-357.17 314.97,-363.43"/>
</g>
<!-- 110.93.252.146 -->
<g id="node2" class="node">
<title>110.93.252.146</title>
<ellipse fill="#608686" stroke="black" cx="82" cy="-196" rx="66.09" ry="18"/>
<text text-anchor="middle" x="82" y="-192.3" font-family="Times New Roman,serif" font-size="14.00">110.93.252.146</text>
</g>
<!-- 72.14.194.14 -->
<g id="node6" class="node">
<title>72.14.194.14</title>
<ellipse fill="#60baba" stroke="black" cx="82" cy="-106" rx="57.69" ry="18"/>
<text text-anchor="middle" x="82" y="-102.3" font-family="Times New Roman,serif" font-size="14.00">72.14.194.14</text>
</g>
<!-- 110.93.252.146&#45;&gt;72.14.194.14 -->
<g id="edge7" class="edge">
<title>110.93.252.146&#45;&gt;72.14.194.14</title>
<path fill="none" stroke="#a07070" d="M82,-177.61C82,-165.24 82,-148.37 82,-134.22"/>
<polygon fill="#a07070" stroke="#a07070" points="85.5,-134.05 82,-124.05 78.5,-134.05 85.5,-134.05"/>
</g>
<!-- 58.65.165.42 -->
<g id="node3" class="node">
<title>58.65.165.42</title>
<ellipse fill="#608686" stroke="black" cx="74" cy="-412" rx="57.69" ry="18"/>
<text text-anchor="middle" x="74" y="-408.3" font-family="Times New Roman,serif" font-size="14.00">58.65.165.42</text>
</g>
<!-- 119.63.136.181 -->
<g id="node5" class="node">
<title>119.63.136.181</title>
<ellipse fill="#608686" stroke="black" cx="82" cy="-340" rx="66.09" ry="18"/>
<text text-anchor="middle" x="82" y="-336.3" font-family="Times New Roman,serif" font-size="14.00">119.63.136.181</text>
</g>
<!-- 58.65.165.42&#45;&gt;119.63.136.181 -->
<g id="edge4" class="edge">
<title>58.65.165.42&#45;&gt;119.63.136.181</title>
<path fill="none" stroke="#a07070" d="M75.98,-393.7C76.86,-385.98 77.92,-376.71 78.9,-368.11"/>
<polygon fill="#a07070" stroke="#a07070" points="82.39,-368.44 80.05,-358.1 75.43,-367.64 82.39,-368.44"/>
</g>
<!-- 110.93.252.99 -->
<g id="node4" class="node">
<title>110.93.252.99</title>
<ellipse fill="#608686" stroke="black" cx="82" cy="-268" rx="61.99" ry="18"/>
<text text-anchor="middle" x="82" y="-264.3" font-family="Times New Roman,serif" font-size="14.00">110.93.252.99</text>
</g>
<!-- 110.93.252.99&#45;&gt;110.93.252.146 -->
<g id="edge6" class="edge">
<title>110.93.252.99&#45;&gt;110.93.252.146</title>
<path fill="none" stroke="#a07070" d="M82,-249.7C82,-241.98 82,-232.71 82,-224.11"/>
<polygon fill="#a07070" stroke="#a07070" points="85.5,-224.1 82,-214.1 78.5,-224.1 85.5,-224.1"/>
</g>
<!-- 119.63.136.181&#45;&gt;110.93.252.99 -->
<g id="edge5" class="edge">
<title>119.63.136.181&#45;&gt;110.93.252.99</title>
<path fill="none" stroke="#a07070" d="M82,-321.7C82,-313.98 82,-304.71 82,-296.11"/>
<polygon fill="#a07070" stroke="#a07070" points="85.5,-296.1 82,-286.1 78.5,-296.1 85.5,-296.1"/>
</g>
<!-- 8.8.8.8 80/tcp -->
<g id="node7" class="node">
<title>8.8.8.8 80/tcp</title>
<polygon fill="red" stroke="black" points="148.26,-26.54 148.26,-41.46 109.44,-52 54.56,-52 15.74,-41.46 15.74,-26.54 54.56,-16 109.44,-16 148.26,-26.54"/>
<text text-anchor="middle" x="82" y="-30.3" font-family="Times New Roman,serif" font-size="14.00">8.8.8.8 80/tcp</text>
</g>
<!-- 72.14.194.14&#45;&gt;8.8.8.8 80/tcp -->
<g id="edge8" class="edge">
<title>72.14.194.14&#45;&gt;8.8.8.8 80/tcp</title>
<path fill="none" stroke="#a07070" d="M82,-87.7C82,-79.98 82,-70.71 82,-62.11"/>
<polygon fill="#a07070" stroke="#a07070" points="85.5,-62.1 82,-52.1 78.5,-62.1 85.5,-62.1"/>
</g>
<!-- 192.168.18.1 -->
<g id="node8" class="node">
<title>192.168.18.1</title>
<ellipse fill="none" stroke="black" cx="212" cy="-494" rx="57.69" ry="18"/>
<text text-anchor="middle" x="212" y="-490.3" font-family="Times New Roman,serif" font-size="14.00">192.168.18.1</text>
</g>
<!-- 192.168.18.1&#45;&gt;58.65.175.252 -->
<g id="edge1" class="edge">
<title>192.168.18.1&#45;&gt;58.65.175.252</title>
<path fill="none" stroke="#a07070" d="M212,-475.64C212,-465.3 212,-451.94 212,-440.22"/>
<polygon fill="#a07070" stroke="#a07070" points="215.5,-440.05 212,-430.05 208.5,-440.05 215.5,-440.05"/>
</g>
<!-- 172.16.11.142&#45;&gt;58.65.165.42 -->
<g id="edge3" class="edge">
<title>172.16.11.142&#45;&gt;58.65.165.42</title>
<path fill="none" stroke="#a07070" d="M307.28,-352.57C300.16,-354.4 292.88,-356.26 286,-358 221.63,-374.28 205.4,-377.83 141,-394 136.44,-395.14 131.7,-396.34 126.96,-397.54"/>
<polygon fill="#a07070" stroke="#a07070" points="126.08,-394.15 117.24,-399.99 127.79,-400.93 126.08,-394.15"/>
</g>
</g>
</svg>
